<?xml version="1.0" encoding="UTF-8"?>
<svg version="1.1" viewBox="0 0 780 780" xml:space="preserve" xmlns="http://www.w3.org/2000/svg">
<style type="text/css">
    .st0{fill:#FFFFFF;}
    .st1{fill:#37A72E;}
    .st2{fill:url(#gradient);}
</style>
<rect class="st0" width="780" height="780"/>
    <g transform="translate(-91 -14)">
        <g transform="translate(91 154)">
            <path class="st1" d="M544.1,240.5v108h60v-64h68c28.6-0.2,52.9-18.5,62.1-44H544.1z"/>
                <linearGradient id="gradient" x1="362.4" x2="363.4" y1="275.43" y2="275.43" gradientTransform="matrix(201.76 0 0 -79 -72584 21950)" gradientUnits="userSpaceOnUse">
                <stop stop-color="#00A0E5" offset="0"/>
                <stop stop-color="#0077C3" offset="1"/>
            </linearGradient>
            <path class="st2" d="m536.1 151.5c3.5 44.1 45.3 79 96.3 79h104.3c0.8-4 1.2-8.2 1.2-12.5 0-36.6-29.5-66.2-66-66.5h-135.8z"/>
            <path class="st1" d="m447.3 229.4v-0.1 0.1c0.7-1.2 1.8-1.9 3.2-1.9 2 0 3.5 1.6 3.6 3.5v116.5h60v-196h-60c-7.6 0.3-16.2 5.8-19.4 12.7l-47.7 102.4c-0.1 0.4-0.3 0.8-0.5 1.2-0.7 1-1.9 1.7-3.3 1.7-2.2 0-4-1.8-4-4v-114h-60v196h60c7.5-0.4 15.9-5.9 19.1-12.7l49-105.1c-0.1-0.1 0-0.2 0-0.3z"/>
            <path class="st1" d="m223.3 232.8-35.1 114.7h-43.2l-35-114.8c-0.3-1.8-1.9-3.2-3.9-3.2-2.2 0-3.9 1.8-3.9 3.9v114h-60v-196h66.8c11 0 22.6 8.6 25.8 19.1l29.2 95.5c1.5 4.8 3.8 4.7 5.3 0l29.2-95.5c3.2-10.6 14.8-19.1 25.8-19.1h66.8v196h-60v-114-0.1c0-2.2-1.8-3.9-3.9-3.9-2 0.1-3.6 1.5-3.9 3.4z"/>
        </g>
    </g>
</svg>