<svg width="40" height="40" viewBox="0 0 40 40" fill="none" xmlns="http://www.w3.org/2000/svg">
<path d="M9.33667 15.6624L4.33668 10.6624C4.16111 10.4867 4.0625 10.2484 4.0625 9.99995C4.0625 9.75151 4.16111 9.51323 4.33668 9.33745L9.33667 4.33745C9.4225 4.24534 9.526 4.17146 9.641 4.12022C9.756 4.06898 9.88014 4.04143 10.006 4.03921C10.1319 4.03699 10.2569 4.06014 10.3737 4.10729C10.4904 4.15445 10.5964 4.22463 10.6855 4.31365C10.7745 4.40267 10.8447 4.50872 10.8918 4.62545C10.939 4.74219 10.9621 4.86722 10.9599 4.9931C10.9577 5.11898 10.9301 5.24312 10.8789 5.35812C10.8277 5.47312 10.7538 5.57662 10.6617 5.66245L6.32574 9.99995L10.6617 14.3374C10.7538 14.4233 10.8277 14.5268 10.8789 14.6418C10.9301 14.7568 10.9577 14.8809 10.9599 15.0068C10.9621 15.1327 10.939 15.2577 10.8918 15.3744C10.8447 15.4912 10.7745 15.5972 10.6855 15.6862C10.5964 15.7753 10.4904 15.8455 10.3737 15.8926C10.2569 15.9398 10.1319 15.9629 10.006 15.9607C9.88014 15.9585 9.756 15.9309 9.641 15.8797C9.526 15.8284 9.4225 15.7546 9.33667 15.6624ZM15.5867 15.6624C15.7625 15.838 16.0007 15.9366 16.2492 15.9366C16.4976 15.9366 16.7359 15.838 16.9117 15.6624L21.9117 10.6624C22.0872 10.4867 22.1859 10.2484 22.1859 9.99995C22.1859 9.75151 22.0872 9.51323 21.9117 9.33745L16.9117 4.33745C16.8258 4.24534 16.7223 4.17146 16.6073 4.12022C16.4923 4.06898 16.3682 4.04143 16.2423 4.03921C16.1164 4.03699 15.9914 4.06014 15.8747 4.10729C15.7579 4.15445 15.6519 4.22463 15.5629 4.31365C15.4739 4.40267 15.4037 4.50872 15.3565 4.62545C15.3094 4.74219 15.2862 4.86722 15.2884 4.9931C15.2907 5.11898 15.3182 5.24312 15.3694 5.35812C15.4207 5.47312 15.4946 5.57662 15.5867 5.66245L19.9226 9.99995L15.5867 14.3374C15.4111 14.5132 15.3125 14.7515 15.3125 14.9999C15.3125 15.2484 15.4111 15.4867 15.5867 15.6624ZM31.2492 6.56245H27.4992C27.2505 6.56245 27.0121 6.66122 26.8363 6.83704C26.6604 7.01285 26.5617 7.25131 26.5617 7.49995C26.5617 7.74859 26.6604 7.98705 26.8363 8.16286C27.0121 8.33868 27.2505 8.43745 27.4992 8.43745H31.2492C31.3321 8.43745 31.4115 8.47037 31.4701 8.52898C31.5288 8.58758 31.5617 8.66707 31.5617 8.74995V31.2499C31.5617 31.3328 31.5288 31.4123 31.4701 31.4709C31.4115 31.5295 31.3321 31.5624 31.2492 31.5624H8.74918C8.6663 31.5624 8.58681 31.5295 8.5282 31.4709C8.4696 31.4123 8.43668 31.3328 8.43668 31.2499V21.2499C8.43668 21.0013 8.3379 20.7628 8.16209 20.587C7.98627 20.4112 7.74782 20.3124 7.49918 20.3124C7.25053 20.3124 7.01208 20.4112 6.83626 20.587C6.66045 20.7628 6.56168 21.0013 6.56168 21.2499V31.2499C6.56168 31.8301 6.79214 32.3865 7.20238 32.7967C7.61261 33.207 8.16901 33.4374 8.74918 33.4374H31.2492C31.8293 33.4374 32.3857 33.207 32.796 32.7967C33.2062 32.3865 33.4367 31.8301 33.4367 31.2499V8.74995C33.4367 8.16979 33.2062 7.61339 32.796 7.20315C32.3857 6.79292 31.8293 6.56245 31.2492 6.56245Z" fill="currentColor"/>
</svg>
