<svg width="40" height="40" viewBox="0 0 40 40" fill="none" xmlns="http://www.w3.org/2000/svg">
<path d="M31.25 35.3125H22.6906C24.213 34.0077 25.6391 32.5947 26.9578 31.0844C31.1969 26.2094 33.4375 21.0844 33.4375 16.25C33.4375 12.6862 32.0218 9.26827 29.5017 6.74825C26.9817 4.22823 23.5638 2.8125 20 2.8125C16.4362 2.8125 13.0183 4.22823 10.4983 6.74825C7.97823 9.26827 6.5625 12.6862 6.5625 16.25C6.5625 21.0797 8.80313 26.2094 13.0422 31.0844C14.3609 32.5947 15.787 34.0077 17.3094 35.3125H8.75C8.50136 35.3125 8.2629 35.4113 8.08709 35.5871C7.91127 35.7629 7.8125 36.0014 7.8125 36.25C7.8125 36.4986 7.91127 36.7371 8.08709 36.9129C8.2629 37.0887 8.50136 37.1875 8.75 37.1875H31.25C31.4986 37.1875 31.7371 37.0887 31.9129 36.9129C32.0887 36.7371 32.1875 36.4986 32.1875 36.25C32.1875 36.0014 32.0887 35.7629 31.9129 35.5871C31.7371 35.4113 31.4986 35.3125 31.25 35.3125ZM8.4375 16.25C8.4375 13.1834 9.65569 10.2425 11.8241 8.07408C13.9925 5.90569 16.9334 4.6875 20 4.6875C23.0666 4.6875 26.0075 5.90569 28.1759 8.07408C30.3443 10.2425 31.5625 13.1834 31.5625 16.25C31.5625 25.5656 22.3438 33.2703 20 35.0797C17.6562 33.2703 8.4375 25.5656 8.4375 16.25ZM25.9375 16.25C25.9375 15.0757 25.5893 13.9277 24.9368 12.9513C24.2844 11.9749 23.3571 11.2139 22.2722 10.7645C21.1872 10.3151 19.9934 10.1975 18.8417 10.4266C17.6899 10.6557 16.6319 11.2212 15.8016 12.0516C14.9712 12.8819 14.4057 13.9399 14.1766 15.0917C13.9475 16.2434 14.0651 17.4372 14.5145 18.5222C14.9639 19.6071 15.7249 20.5344 16.7013 21.1868C17.6777 21.8393 18.8257 22.1875 20 22.1875C21.5747 22.1875 23.0849 21.5619 24.1984 20.4484C25.3119 19.3349 25.9375 17.8247 25.9375 16.25ZM15.9375 16.25C15.9375 15.4465 16.1758 14.6611 16.6222 13.993C17.0685 13.3249 17.703 12.8042 18.4453 12.4967C19.1877 12.1893 20.0045 12.1088 20.7926 12.2656C21.5806 12.4223 22.3045 12.8092 22.8726 13.3774C23.4408 13.9455 23.8277 14.6694 23.9844 15.4574C24.1412 16.2455 24.0607 17.0623 23.7533 17.8047C23.4458 18.547 22.9251 19.1815 22.257 19.6278C21.5889 20.0742 20.8035 20.3125 20 20.3125C18.9226 20.3125 17.8892 19.8845 17.1274 19.1226C16.3655 18.3608 15.9375 17.3274 15.9375 16.25Z" fill="currentColor"/>
</svg>
