<svg width="48" height="48" viewBox="0 0 48 48" fill="none" xmlns="http://www.w3.org/2000/svg">
<path d="M41.1452 27.4125C40.5728 25.0463 39.5196 22.8232 38.0513 20.8814C36.583 18.9395 34.7309 17.3205 32.6102 16.125H45.0002C45.2986 16.125 45.5848 16.0065 45.7957 15.7955C46.0067 15.5845 46.1252 15.2984 46.1252 15C46.1252 14.7017 46.0067 14.4155 45.7957 14.2045C45.5848 13.9936 45.2986 13.875 45.0002 13.875H29.5127C29.2545 12.6034 28.5647 11.4602 27.56 10.6391C26.5554 9.81796 25.2978 9.36938 24.0002 9.36938C22.7027 9.36938 21.4451 9.81796 20.4404 10.6391C19.4358 11.4602 18.7459 12.6034 18.4877 13.875H3.00024C2.70187 13.875 2.41572 13.9936 2.20474 14.2045C1.99376 14.4155 1.87524 14.7017 1.87524 15C1.87524 15.2984 1.99376 15.5845 2.20474 15.7955C2.41572 16.0065 2.70187 16.125 3.00024 16.125H15.3902C13.2695 17.3205 11.4175 18.9395 9.94915 20.8814C8.48085 22.8232 7.42771 25.0463 6.85524 27.4125C5.47155 27.5718 4.19617 28.2388 3.27598 29.2844C2.35578 30.3299 1.85622 31.6797 1.87399 33.0724C1.89177 34.4651 2.42561 35.8017 3.37219 36.8234C4.31876 37.8452 5.61075 38.4794 6.99805 38.6033C8.38534 38.7272 9.76929 38.3321 10.882 37.4943C11.9947 36.6565 12.757 35.4357 13.0213 34.0682C13.2856 32.7007 13.0332 31.2837 12.3129 30.0916C11.5926 28.8995 10.4557 28.017 9.12211 27.615C9.75904 25.2071 10.9678 22.9886 12.6456 21.1478C14.3235 19.3071 16.4209 17.8986 18.7596 17.0419C19.1711 18.097 19.8915 19.0034 20.8265 19.6424C21.7615 20.2814 22.8677 20.6233 24.0002 20.6233C25.1328 20.6233 26.2389 20.2814 27.174 19.6424C28.109 19.0034 28.8294 18.097 29.2409 17.0419C31.5796 17.8986 33.677 19.3071 35.3548 21.1478C37.0327 22.9886 38.2414 25.2071 38.8784 27.615C37.5448 28.017 36.4078 28.8995 35.6875 30.0916C34.9672 31.2837 34.7148 32.7007 34.9792 34.0682C35.2435 35.4357 36.0058 36.6565 37.1185 37.4943C38.2312 38.3321 39.6151 38.7272 41.0024 38.6033C42.3897 38.4794 43.6817 37.8452 44.6283 36.8234C45.5749 35.8017 46.1087 34.4651 46.1265 33.0724C46.1443 31.6797 45.6447 30.3299 44.7245 29.2844C43.8043 28.2388 42.5289 27.5718 41.1452 27.4125ZM10.8752 33C10.8752 33.6675 10.6773 34.3201 10.3064 34.8751C9.9356 35.4301 9.40849 35.8627 8.79179 36.1181C8.17509 36.3736 7.49649 36.4404 6.84181 36.3102C6.18712 36.1799 5.58575 35.8585 5.11375 35.3865C4.64175 34.9145 4.32031 34.3131 4.19009 33.6585C4.05986 33.0038 4.1267 32.3252 4.38214 31.7085C4.63759 31.0918 5.07017 30.5647 5.62519 30.1938C6.1802 29.823 6.83273 29.625 7.50024 29.625C8.39534 29.625 9.25379 29.9806 9.88672 30.6135C10.5197 31.2465 10.8752 32.1049 10.8752 33ZM24.0002 18.375C23.3327 18.375 22.6802 18.1771 22.1252 17.8062C21.5702 17.4354 21.1376 16.9083 20.8821 16.2916C20.6267 15.6749 20.5599 14.9963 20.6901 14.3416C20.8203 13.6869 21.1417 13.0855 21.6138 12.6135C22.0858 12.1415 22.6871 11.8201 23.3418 11.6899C23.9965 11.5596 24.6751 11.6265 25.2918 11.8819C25.9085 12.1374 26.4356 12.57 26.8064 13.125C27.1773 13.68 27.3752 14.3325 27.3752 15C27.3752 15.8951 27.0197 16.7536 26.3867 17.3865C25.7538 18.0194 24.8953 18.375 24.0002 18.375ZM40.5002 36.375C39.8327 36.375 39.1802 36.1771 38.6252 35.8062C38.0702 35.4354 37.6376 34.9083 37.3821 34.2916C37.1267 33.6749 37.0599 32.9963 37.1901 32.3416C37.3203 31.6869 37.6417 31.0855 38.1138 30.6135C38.5858 30.1415 39.1871 29.8201 39.8418 29.6899C40.4965 29.5597 41.1751 29.6265 41.7918 29.8819C42.4085 30.1374 42.9356 30.57 43.3064 31.125C43.6773 31.68 43.8752 32.3325 43.8752 33C43.8752 33.8951 43.5197 34.7536 42.8867 35.3865C42.2538 36.0194 41.3953 36.375 40.5002 36.375Z" fill="white"/>
</svg>
