<svg width="48" height="48" viewBox="0 0 48 48" fill="none" xmlns="http://www.w3.org/2000/svg">
<path d="M40.5 15.375H34.125V9C34.125 8.30381 33.8484 7.63613 33.3562 7.14384C32.8639 6.65156 32.1962 6.375 31.5 6.375H7.5C6.80381 6.375 6.13613 6.65156 5.64384 7.14384C5.15156 7.63613 4.875 8.30381 4.875 9V33C4.87525 33.2124 4.9356 33.4203 5.04908 33.5998C5.16255 33.7793 5.32452 33.9231 5.51625 34.0144C5.66695 34.0877 5.83242 34.1255 6 34.125C6.2572 34.1251 6.50668 34.0371 6.70688 33.8756L13.8206 28.125H13.875V34.5C13.875 35.1962 14.1516 35.8639 14.6438 36.3562C15.1361 36.8484 15.8038 37.125 16.5 37.125H34.1794L41.2931 42.8756C41.4933 43.0371 41.7428 43.1251 42 43.125C42.1676 43.1255 42.333 43.0877 42.4837 43.0144C42.6755 42.9231 42.8374 42.7793 42.9509 42.5998C43.0644 42.4203 43.1248 42.2124 43.125 42V18C43.125 17.3038 42.8484 16.6361 42.3562 16.1438C41.8639 15.6516 41.1962 15.375 40.5 15.375ZM13.4213 25.875C13.164 25.8749 12.9146 25.9629 12.7144 26.1244L7.125 30.6431V9C7.125 8.90054 7.16451 8.80516 7.23483 8.73483C7.30516 8.66451 7.40054 8.625 7.5 8.625H31.5C31.5995 8.625 31.6948 8.66451 31.7652 8.73483C31.8355 8.80516 31.875 8.90054 31.875 9V25.5C31.875 25.5995 31.8355 25.6948 31.7652 25.7652C31.6948 25.8355 31.5995 25.875 31.5 25.875H13.4213ZM40.875 39.6431L35.2856 35.1244C35.0854 34.9629 34.836 34.8749 34.5788 34.875H16.5C16.4005 34.875 16.3052 34.8355 16.2348 34.7652C16.1645 34.6948 16.125 34.5995 16.125 34.5V28.125H31.5C32.1962 28.125 32.8639 27.8484 33.3562 27.3562C33.8484 26.8639 34.125 26.1962 34.125 25.5V17.625H40.5C40.5995 17.625 40.6948 17.6645 40.7652 17.7348C40.8355 17.8052 40.875 17.9005 40.875 18V39.6431Z" fill="white"/>
</svg>
