<svg width="48" height="48" viewBox="0 0 48 48" fill="none" xmlns="http://www.w3.org/2000/svg">
<path d="M11.205 18.795L5.20499 12.795C4.99431 12.584 4.87598 12.2981 4.87598 12C4.87598 11.7019 4.99431 11.4159 5.20499 11.205L11.205 5.20499C11.308 5.09446 11.4322 5.0058 11.5702 4.94432C11.7082 4.88283 11.8571 4.84976 12.0082 4.8471C12.1593 4.84443 12.3093 4.87222 12.4494 4.9288C12.5895 4.98538 12.7167 5.0696 12.8235 5.17643C12.9304 5.28326 13.0146 5.41051 13.0712 5.55059C13.1278 5.69067 13.1555 5.84072 13.1529 5.99177C13.1502 6.14282 13.1171 6.29179 13.0557 6.42979C12.9942 6.56779 12.9055 6.69199 12.795 6.79499L7.59186 12L12.795 17.205C12.9055 17.308 12.9942 17.4322 13.0557 17.5702C13.1171 17.7082 13.1502 17.8571 13.1529 18.0082C13.1555 18.1593 13.1278 18.3093 13.0712 18.4494C13.0146 18.5895 12.9304 18.7167 12.8235 18.8235C12.7167 18.9304 12.5895 19.0146 12.4494 19.0712C12.3093 19.1278 12.1593 19.1555 12.0082 19.1529C11.8571 19.1502 11.7082 19.1171 11.5702 19.0557C11.4322 18.9942 11.308 18.9055 11.205 18.795ZM18.705 18.795C18.9159 19.0057 19.2019 19.124 19.5 19.124C19.7981 19.124 20.084 19.0057 20.295 18.795L26.295 12.795C26.5057 12.584 26.624 12.2981 26.624 12C26.624 11.7019 26.5057 11.4159 26.295 11.205L20.295 5.20499C20.192 5.09446 20.0678 5.0058 19.9298 4.94432C19.7918 4.88283 19.6428 4.84976 19.4918 4.8471C19.3407 4.84443 19.1907 4.87222 19.0506 4.9288C18.9105 4.98538 18.7833 5.0696 18.6764 5.17643C18.5696 5.28326 18.4854 5.41051 18.4288 5.55059C18.3722 5.69067 18.3444 5.84072 18.3471 5.99177C18.3498 6.14282 18.3828 6.29179 18.4443 6.42979C18.5058 6.56779 18.5945 6.69199 18.705 6.79499L23.9081 12L18.705 17.205C18.4943 17.4159 18.376 17.7019 18.376 18C18.376 18.2981 18.4943 18.584 18.705 18.795ZM37.5 7.87499H33C32.7016 7.87499 32.4155 7.99351 32.2045 8.20449C31.9935 8.41547 31.875 8.70162 31.875 8.99999C31.875 9.29835 31.9935 9.5845 32.2045 9.79548C32.4155 10.0065 32.7016 10.125 33 10.125H37.5C37.5994 10.125 37.6948 10.1645 37.7651 10.2348C37.8355 10.3051 37.875 10.4005 37.875 10.5V37.5C37.875 37.5994 37.8355 37.6948 37.7651 37.7652C37.6948 37.8355 37.5994 37.875 37.5 37.875H10.5C10.4005 37.875 10.3051 37.8355 10.2348 37.7652C10.1645 37.6948 10.125 37.5994 10.125 37.5V25.5C10.125 25.2016 10.0065 24.9155 9.79548 24.7045C9.5845 24.4935 9.29835 24.375 8.99999 24.375C8.70162 24.375 8.41547 24.4935 8.20449 24.7045C7.99351 24.9155 7.87499 25.2016 7.87499 25.5V37.5C7.87499 38.1962 8.15155 38.8639 8.64383 39.3561C9.13611 39.8484 9.80379 40.125 10.5 40.125H37.5C38.1962 40.125 38.8639 39.8484 39.3561 39.3561C39.8484 38.8639 40.125 38.1962 40.125 37.5V10.5C40.125 9.80379 39.8484 9.13611 39.3561 8.64383C38.8639 8.15155 38.1962 7.87499 37.5 7.87499Z" fill="white"/>
</svg>
