<svg width="48" height="48" viewBox="0 0 48 48" fill="none" xmlns="http://www.w3.org/2000/svg">
<path d="M37.5881 10.5131C35.8286 8.73486 33.7353 7.32144 31.4283 6.35392C29.1213 5.3864 26.646 4.88382 24.1444 4.875H24C18.9277 4.875 14.0632 6.88995 10.4766 10.4766C6.88995 14.0632 4.875 18.9277 4.875 24V34.5C4.875 35.594 5.3096 36.6432 6.08318 37.4168C6.85677 38.1904 7.90598 38.625 9 38.625H12C13.094 38.625 14.1432 38.1904 14.9168 37.4168C15.6904 36.6432 16.125 35.594 16.125 34.5V27C16.125 25.906 15.6904 24.8568 14.9168 24.0832C14.1432 23.3096 13.094 22.875 12 22.875H7.1625C7.44789 18.6037 9.3459 14.6006 12.4722 11.6762C15.5984 8.7519 19.7192 7.12499 24 7.125H24.1275C28.3904 7.14392 32.487 8.78069 35.5893 11.7044C38.6916 14.6282 40.5681 18.6207 40.8394 22.875H36C34.906 22.875 33.8568 23.3096 33.0832 24.0832C32.3096 24.8568 31.875 25.906 31.875 27V34.5C31.875 35.594 32.3096 36.6432 33.0832 37.4168C33.8568 38.1904 34.906 38.625 36 38.625H40.875V39C40.875 40.2929 40.3614 41.5329 39.4471 42.4471C38.5329 43.3614 37.2929 43.875 36 43.875H25.5C25.2016 43.875 24.9155 43.9935 24.7045 44.2045C24.4935 44.4155 24.375 44.7016 24.375 45C24.375 45.2984 24.4935 45.5845 24.7045 45.7955C24.9155 46.0065 25.2016 46.125 25.5 46.125H36C37.8897 46.125 39.7019 45.3743 41.0381 44.0381C42.3743 42.7019 43.125 40.8897 43.125 39V24C43.1344 21.4983 42.6502 19.0193 41.7001 16.705C40.75 14.3907 39.3527 12.2866 37.5881 10.5131ZM12 25.125C12.4973 25.125 12.9742 25.3225 13.3258 25.6742C13.6775 26.0258 13.875 26.5027 13.875 27V34.5C13.875 34.9973 13.6775 35.4742 13.3258 35.8258C12.9742 36.1775 12.4973 36.375 12 36.375H9C8.50272 36.375 8.02581 36.1775 7.67417 35.8258C7.32254 35.4742 7.125 34.9973 7.125 34.5V25.125H12ZM34.125 34.5V27C34.125 26.5027 34.3225 26.0258 34.6742 25.6742C35.0258 25.3225 35.5027 25.125 36 25.125H40.875V36.375H36C35.5027 36.375 35.0258 36.1775 34.6742 35.8258C34.3225 35.4742 34.125 34.9973 34.125 34.5Z" fill="white"/>
</svg>
