<svg width="56" height="56" viewBox="0 0 56 56" fill="none" xmlns="http://www.w3.org/2000/svg">
<path d="M38.9375 7.4375C34.3438 7.4375 30.3494 9.50906 28 12.9806C25.6506 9.50906 21.6562 7.4375 17.0625 7.4375C13.5828 7.44155 10.2467 8.82566 7.7862 11.2862C5.32566 13.7467 3.94155 17.0828 3.9375 20.5625C3.9375 26.95 7.91875 33.5978 15.7719 40.3178C19.3704 43.3842 23.2575 46.0947 27.3787 48.4116C27.5697 48.5142 27.7832 48.5679 28 48.5679C28.2168 48.5679 28.4303 48.5142 28.6213 48.4116C32.7425 46.0947 36.6296 43.3842 40.2281 40.3178C48.0812 33.5978 52.0625 26.95 52.0625 20.5625C52.0584 17.0828 50.6743 13.7467 48.2138 11.2862C45.7533 8.82566 42.4172 7.44155 38.9375 7.4375ZM28 45.7428C24.4103 43.6713 6.5625 32.7513 6.5625 20.5625C6.5654 17.7786 7.67257 15.1096 9.64108 13.1411C11.6096 11.1726 14.2786 10.0654 17.0625 10.0625C21.4988 10.0625 25.2241 12.4316 26.7859 16.2466C26.8848 16.4873 27.053 16.6932 27.2692 16.8381C27.4854 16.983 27.7398 17.0604 28 17.0604C28.2602 17.0604 28.5146 16.983 28.7308 16.8381C28.947 16.6932 29.1152 16.4873 29.2141 16.2466C30.7759 12.4316 34.5012 10.0625 38.9375 10.0625C41.7214 10.0654 44.3904 11.1726 46.3589 13.1411C48.3274 15.1096 49.4346 17.7786 49.4375 20.5625C49.4375 32.7513 31.5897 43.6713 28 45.7428Z" fill="white"/>
</svg>
