<svg width="48" height="48" viewBox="0 0 48 48" fill="none" xmlns="http://www.w3.org/2000/svg">
<path d="M37.5 42.375H27.2288C29.0556 40.8093 30.7669 39.1136 32.3494 37.3013C37.4362 31.4513 40.125 25.3013 40.125 19.5C40.125 15.2234 38.4261 11.1219 35.4021 8.0979C32.3781 5.07388 28.2766 3.375 24 3.375C19.7234 3.375 15.6219 5.07388 12.5979 8.0979C9.57388 11.1219 7.875 15.2234 7.875 19.5C7.875 25.2956 10.5638 31.4513 15.6506 37.3013C17.2331 39.1136 18.9444 40.8093 20.7712 42.375H10.5C10.2016 42.375 9.91548 42.4935 9.7045 42.7045C9.49353 42.9155 9.375 43.2016 9.375 43.5C9.375 43.7984 9.49353 44.0845 9.7045 44.2955C9.91548 44.5065 10.2016 44.625 10.5 44.625H37.5C37.7984 44.625 38.0845 44.5065 38.2955 44.2955C38.5065 44.0845 38.625 43.7984 38.625 43.5C38.625 43.2016 38.5065 42.9155 38.2955 42.7045C38.0845 42.4935 37.7984 42.375 37.5 42.375ZM10.125 19.5C10.125 15.8201 11.5868 12.291 14.1889 9.68889C16.791 7.08683 20.3201 5.625 24 5.625C27.6799 5.625 31.209 7.08683 33.8111 9.68889C36.4132 12.291 37.875 15.8201 37.875 19.5C37.875 30.6787 26.8125 39.9244 24 42.0956C21.1875 39.9244 10.125 30.6787 10.125 19.5ZM31.125 19.5C31.125 18.0908 30.7071 16.7133 29.9242 15.5416C29.1413 14.3699 28.0285 13.4566 26.7266 12.9174C25.4247 12.3781 23.9921 12.237 22.61 12.5119C21.2279 12.7868 19.9583 13.4654 18.9619 14.4619C17.9654 15.4583 17.2868 16.7279 17.0119 18.11C16.737 19.4921 16.8781 20.9247 17.4174 22.2266C17.9566 23.5285 18.8699 24.6413 20.0416 25.4242C21.2133 26.2071 22.5908 26.625 24 26.625C25.8897 26.625 27.7019 25.8743 29.0381 24.5381C30.3743 23.2019 31.125 21.3897 31.125 19.5ZM19.125 19.5C19.125 18.5358 19.4109 17.5933 19.9466 16.7916C20.4823 15.9899 21.2436 15.3651 22.1344 14.9961C23.0252 14.6271 24.0054 14.5306 24.9511 14.7187C25.8967 14.9068 26.7654 15.3711 27.4471 16.0529C28.1289 16.7346 28.5932 17.6033 28.7813 18.5489C28.9694 19.4946 28.8729 20.4748 28.5039 21.3656C28.1349 22.2564 27.5101 23.0177 26.7084 23.5534C25.9067 24.0891 24.9642 24.375 24 24.375C22.7071 24.375 21.4671 23.8614 20.5529 22.9471C19.6386 22.0329 19.125 20.7929 19.125 19.5Z" fill="white"/>
</svg>
