<svg width="48" height="48" viewBox="0 0 48 48" fill="none" xmlns="http://www.w3.org/2000/svg">
<path d="M44.5069 39.9975L34.0069 18.9975C33.9136 18.8103 33.7699 18.6528 33.5921 18.5427C33.4142 18.4326 33.2092 18.3743 33 18.3743C32.7908 18.3743 32.5858 18.4326 32.4079 18.5427C32.2301 18.6528 32.0864 18.8103 31.9931 18.9975L27.8119 27.36C24.3173 27.215 20.9542 25.9879 18.1875 23.8481C21.4039 20.5587 23.323 16.2177 23.5912 11.625H28.5C28.7984 11.625 29.0845 11.5065 29.2955 11.2955C29.5065 11.0845 29.625 10.7984 29.625 10.5C29.625 10.2016 29.5065 9.91548 29.2955 9.7045C29.0845 9.49353 28.7984 9.375 28.5 9.375H17.625V6C17.625 5.70163 17.5065 5.41548 17.2955 5.2045C17.0845 4.99353 16.7984 4.875 16.5 4.875C16.2016 4.875 15.9155 4.99353 15.7045 5.2045C15.4935 5.41548 15.375 5.70163 15.375 6V9.375H4.5C4.20163 9.375 3.91548 9.49353 3.7045 9.7045C3.49353 9.91548 3.375 10.2016 3.375 10.5C3.375 10.7984 3.49353 11.0845 3.7045 11.2955C3.91548 11.5065 4.20163 11.625 4.5 11.625H21.3356C21.0686 15.6675 19.3515 19.4778 16.5 22.3556C14.751 20.593 13.4134 18.4653 12.5831 16.125C12.5365 15.9824 12.4619 15.8506 12.3636 15.7372C12.2653 15.6239 12.1453 15.5314 12.0107 15.4651C11.8761 15.3988 11.7296 15.3602 11.5799 15.3513C11.4301 15.3425 11.2801 15.3638 11.1386 15.4138C10.9972 15.4638 10.8672 15.5416 10.7563 15.6426C10.6454 15.7436 10.5558 15.8658 10.4928 16.002C10.4298 16.1381 10.3946 16.2855 10.3894 16.4354C10.3842 16.5854 10.4091 16.7348 10.4625 16.875C11.3879 19.4887 12.8725 21.8691 14.8125 23.85C11.8625 26.1388 8.2338 27.3792 4.5 27.375C4.20163 27.375 3.91548 27.4935 3.7045 27.7045C3.49353 27.9155 3.375 28.2016 3.375 28.5C3.375 28.7984 3.49353 29.0845 3.7045 29.2955C3.91548 29.5065 4.20163 29.625 4.5 29.625C8.8683 29.629 13.1052 28.1309 16.5 25.3819C19.4262 27.7411 22.9821 29.1868 26.7244 29.5388L21.495 39.9975C21.429 40.1297 21.3897 40.2737 21.3793 40.4211C21.369 40.5685 21.3877 40.7165 21.4346 40.8566C21.5292 41.1397 21.7323 41.3736 21.9994 41.5069C22.2664 41.6401 22.5755 41.6619 22.8585 41.5673C23.1416 41.4727 23.3755 41.2695 23.5087 41.0025L26.1956 35.625H39.8044L42.4931 41.0025C42.5865 41.1896 42.7302 41.3469 42.9081 41.4569C43.0859 41.5668 43.2909 41.6251 43.5 41.625C43.6746 41.6254 43.8469 41.5843 44.0025 41.505C44.2691 41.3718 44.472 41.1382 44.5665 40.8556C44.6611 40.573 44.6396 40.2643 44.5069 39.9975ZM27.3206 33.375L33 22.0163L38.6794 33.375H27.3206Z" fill="white"/>
</svg>
