<svg width="40" height="18" viewBox="0 0 40 18" fill="none" xmlns="http://www.w3.org/2000/svg">
<g clip-path="url(#clip0_2940_3011)">
<path d="M0.499315 0.411877V17.5794H1.66945V17.9911H0.0507812V0.00237695H1.66891V0.414127L0.499315 0.411877ZM5.00598 5.85406V6.72256H5.02945C5.23452 6.40547 5.50584 6.14222 5.82251 5.95306C6.13185 5.77138 6.48651 5.68025 6.88545 5.68025C7.26945 5.68025 7.61985 5.759 7.93718 5.9165C8.25451 6.07344 8.49558 6.35019 8.65985 6.74731C8.84012 6.46606 9.08438 6.218 9.39425 6.00313C9.70358 5.78769 10.0694 5.68025 10.4929 5.68025C10.814 5.68025 11.1116 5.72188 11.3857 5.804C11.6598 5.88725 11.8945 6.01944 12.0908 6.20169C12.286 6.38338 12.439 6.62131 12.5489 6.91494C12.6582 7.20856 12.7132 7.56181 12.7132 7.97638V12.2699H11.0454V8.63394C11.0454 8.4185 11.0374 8.216 11.022 8.02531C11.0108 7.85251 10.9669 7.68381 10.8929 7.52919C10.8219 7.38811 10.7137 7.27169 10.5814 7.19394C10.4444 7.11181 10.2582 7.07019 10.023 7.07019C9.78838 7.07019 9.59852 7.118 9.45345 7.2125C9.30838 7.30813 9.19478 7.43188 9.11265 7.58488C9.02778 7.74647 8.97208 7.92328 8.94838 8.10631C8.92068 8.30145 8.90677 8.4985 8.90678 8.69581V12.2699H7.23851V8.67106C7.23851 8.48094 7.23478 8.2925 7.22731 8.10631C7.22126 7.92988 7.18738 7.75575 7.12705 7.59106C7.06947 7.43547 6.96682 7.30299 6.83371 7.2125C6.69611 7.118 6.49451 7.07019 6.22838 7.07019C6.12271 7.07488 6.01804 7.09379 5.91691 7.12644C5.77911 7.16832 5.65107 7.23996 5.54091 7.33681C5.41931 7.44031 5.31585 7.58938 5.22945 7.78344C5.14358 7.97806 5.10038 8.23231 5.10038 8.54675V12.2699H3.43158V5.85181L5.00598 5.85406ZM13.7846 6.79738C13.9532 6.52782 14.1782 6.30266 14.4422 6.13925C14.7208 5.96887 15.0246 5.84925 15.3409 5.78544C15.6717 5.71547 16.0083 5.68023 16.3457 5.68025C16.6513 5.68025 16.9606 5.70275 17.2737 5.74831C17.5873 5.79388 17.8732 5.88331 18.1318 6.0155C18.39 6.14769 18.6012 6.33163 18.7665 6.56731C18.9308 6.80356 19.0129 7.11575 19.0129 7.50444V10.8423C19.0129 11.1326 19.0289 11.4093 19.0598 11.6737C19.0908 11.9386 19.1457 12.1372 19.2241 12.2699H17.5329C17.469 12.069 17.4295 11.8604 17.4156 11.6489C17.1489 11.9386 16.8358 12.1417 16.4758 12.257C16.1179 12.3725 15.7457 12.4313 15.3713 12.4314C15.0812 12.4314 14.8113 12.3937 14.5606 12.3189C14.3215 12.2508 14.0977 12.1328 13.9025 11.9718C13.7131 11.8128 13.5621 11.6086 13.462 11.3761C13.3558 11.1365 13.303 10.8507 13.303 10.52C13.303 10.1561 13.3638 9.85625 13.4854 9.62C13.6065 9.38431 13.7628 9.19644 13.9553 9.05525C14.1473 8.91463 14.3665 8.80944 14.6134 8.73913C14.8598 8.66881 15.1089 8.61313 15.3596 8.5715C15.6102 8.53044 15.8566 8.49725 16.0993 8.4725C16.3425 8.44775 16.558 8.41063 16.7457 8.36056C16.934 8.31106 17.0822 8.2385 17.1921 8.14344C17.302 8.04838 17.3526 7.91 17.3452 7.72719C17.3452 7.53763 17.3158 7.38631 17.2566 7.27494C17.2019 7.16743 17.1209 7.07732 17.022 7.01394C16.9172 6.94955 16.8014 6.90751 16.6812 6.89019C16.5431 6.86902 16.4037 6.85868 16.2641 6.85925C15.935 6.85925 15.6769 6.9335 15.4886 7.08256C15.3009 7.23106 15.191 7.47969 15.1596 7.82675H13.4913C13.5148 7.41331 13.6124 7.07019 13.7846 6.79738ZM17.0801 9.28531C16.9685 9.32399 16.8547 9.35499 16.7393 9.37813C16.6128 9.40377 16.4854 9.42441 16.3574 9.44C16.2241 9.45687 16.0908 9.47769 15.958 9.50188C15.8327 9.52672 15.7091 9.55998 15.5878 9.60144C15.4743 9.63883 15.3673 9.69545 15.271 9.76906C15.1804 9.83938 15.1084 9.92881 15.0534 10.0357C14.9985 10.1437 14.9713 10.2798 14.9713 10.4452C14.9713 10.6027 14.9985 10.7349 15.0534 10.8423C15.1084 10.9503 15.1825 11.0347 15.2769 11.0971C15.3708 11.159 15.4801 11.2023 15.606 11.2271C15.7308 11.2518 15.8604 11.2642 15.9932 11.2642C16.3222 11.2642 16.5766 11.2068 16.7569 11.0904C16.9372 10.9751 17.07 10.8361 17.1569 10.6747C17.2422 10.5138 17.2956 10.3507 17.3153 10.1853C17.3345 10.0194 17.3446 9.88719 17.3446 9.78763V9.1295C17.2675 9.19996 17.1775 9.25299 17.0801 9.28531ZM23.4054 5.85406V7.03306H22.1836V10.2095C22.1836 10.5076 22.2305 10.7062 22.3244 10.8052C22.4182 10.9048 22.6065 10.9543 22.8881 10.9543C22.9825 10.9543 23.0721 10.9503 23.1585 10.9419C23.2444 10.9334 23.327 10.9211 23.4054 10.9047V12.2694C23.2497 12.2958 23.0926 12.3126 22.935 12.3194C22.7668 12.3274 22.5984 12.3316 22.43 12.3318C22.1718 12.3318 21.9265 12.3127 21.6956 12.2756C21.4809 12.2443 21.2737 12.1706 21.0849 12.0584C20.9077 11.9499 20.7631 11.7908 20.6678 11.5994C20.566 11.4009 20.5148 11.1404 20.5148 10.8176V7.03306H19.5046V5.85406H20.5148V3.93031H22.1836V5.85406H23.4054ZM25.79 5.85406V7.04544H25.8134C25.9733 6.64261 26.2432 6.29913 26.5889 6.05881C26.7601 5.93945 26.946 5.84539 27.1414 5.77925C27.3389 5.71295 27.5449 5.67954 27.7521 5.68025C27.862 5.68025 27.983 5.70106 28.1164 5.74213V7.38013C28.0232 7.36119 27.9292 7.34674 27.8348 7.33681C27.7294 7.32465 27.6235 7.31846 27.5174 7.31825C27.2118 7.31825 26.9532 7.37225 26.742 7.47969C26.5396 7.57944 26.364 7.73081 26.231 7.92013C26.0979 8.11519 26.0039 8.33683 25.9548 8.5715C25.8983 8.83619 25.8708 9.10683 25.8727 9.37813V12.2694H24.2044V5.85688L25.79 5.85406ZM28.8214 4.86125V3.40888H30.4897V4.86125H28.8214ZM30.4897 5.85406V12.2666H28.822V5.85406H30.4897ZM31.359 5.85406H33.2625L34.3319 7.52919L35.3889 5.85406H37.2337L35.2364 8.85725L37.4806 12.2699H35.5766L34.3084 10.2472L33.039 12.2699H31.1713L33.3564 8.89438L31.359 5.85406ZM39.5191 17.5766V0.409064H38.3489V-0.00268555H39.9676V17.9861H38.3489V17.5743L39.5191 17.5766Z" fill="currentColor"/>
</g>
<defs>
<clipPath id="clip0_2940_3011">
<rect width="40" height="18" fill="currentColor"/>
</clipPath>
</defs>
</svg>
