<svg width="16" height="18" viewBox="0 0 16 18" fill="none" xmlns="http://www.w3.org/2000/svg">
<path d="M15.5074 6.13956C15.4214 6.1897 13.3755 7.24779 13.3755 9.59384C13.4719 12.2694 15.9574 13.2076 16 13.2076C15.9574 13.2578 15.6248 14.4858 14.6395 15.7731C13.8576 16.882 12.9897 18 11.6719 18C10.4183 18 9.96831 17.261 8.52188 17.261C6.96853 17.261 6.52901 18 5.33972 18C4.02186 18 3.08972 16.8221 2.26518 15.7236C1.19398 14.2859 0.2835 12.0297 0.251357 9.86341C0.229696 8.71545 0.465876 7.58704 1.06541 6.62856C1.91161 5.29048 3.42233 4.38214 5.0721 4.35219C6.33615 4.31247 7.46116 5.1609 8.23259 5.1609C8.97188 5.1609 10.354 4.35219 11.9178 4.35219C12.5928 4.35284 14.3929 4.54232 15.5074 6.13956ZM8.12568 4.12299C7.90068 3.07466 8.52188 2.02633 9.10045 1.35762C9.83974 0.548908 11.0074 0 12.0143 0C12.0786 1.04833 11.6712 2.07647 10.9431 2.82528C10.2897 3.63399 9.16473 4.2428 8.12568 4.12299Z" fill="white"/>
</svg>
