<svg width="22" height="22" viewBox="0 0 22 22" fill="none" xmlns="http://www.w3.org/2000/svg">
<path fill-rule="evenodd" clip-rule="evenodd" d="M15.5917 0.5H6.40829C2.08229 0.5 0.5 2.08229 0.5 6.40832V15.5919C0.5 19.9177 2.08229 21.5 6.40829 21.5H15.5888C19.9148 21.5 21.5 19.9177 21.5 15.5919V6.40832C21.5 2.08229 19.9177 0.5 15.5917 0.5Z" fill="white"/>
<path d="M9.6619 12.6792H10.5041L10.0817 11.6968L9.6619 12.6792ZM9.45455 13.1744L9.20476 13.746H8.63599L9.84559 11.0019H10.337L11.5417 13.746H10.9577L10.711 13.1744H9.45455ZM18.6068 13.7441H19.1565V11.0019H18.6068V13.7441ZM16.419 12.5658H17.4321V12.0661H16.419V11.504H17.8897V11.0036H15.8695V13.7457H17.9427V13.2456H16.419V12.5658ZM14.2348 12.8898L13.6114 11.0018H13.157L12.5336 12.8898L11.927 11.0031H11.3342L12.2911 13.7473H12.7522L13.3765 11.9448L14.0005 13.7473H14.4658L15.4203 11.0031H14.8427L14.2348 12.8898ZM7.79687 12.5734C7.79687 13.0198 7.57516 13.2583 7.17263 13.2583C6.76788 13.2583 6.54505 13.0131 6.54505 12.5544V11.0035H5.988V12.5734C5.988 13.3458 6.41706 13.7886 7.1651 13.7886C7.92044 13.7886 8.3537 13.3373 8.3537 12.5507V11.0018H7.79687V12.5734ZM4.65881 11.0019H5.21564V13.7475H4.65881V12.6325H3.4008V13.7475H2.84375V11.0019H3.4008V12.1095H4.65881V11.0019Z" fill="black"/>
<path d="M10.9994 7.50586C9.07205 7.50586 7.50391 5.93769 7.50391 4.01033H7.99773C7.99773 5.66544 9.34417 7.01205 10.9994 7.01205C12.6547 7.01205 14.0011 5.66544 14.0011 4.01033H14.4949C14.4949 5.93769 12.9268 7.50586 10.9994 7.50586Z" fill="black"/>
</svg>
