<svg width="21" height="20" viewBox="0 0 21 20" fill="none" xmlns="http://www.w3.org/2000/svg">
<path fill-rule="evenodd" clip-rule="evenodd" d="M1.46129 0.210322C1.28156 -0.0247017 0.945345 -0.069531 0.710322 0.110193C0.475298 0.289917 0.430469 0.626137 0.610193 0.861161L2.12701 2.8447C2.00095 3.05761 1.9286 3.30608 1.9286 3.57145V6.42859C1.9286 7.21757 2.56819 7.85716 3.35716 7.85716H17.6428C18.4318 7.85716 19.0714 7.21757 19.0714 6.42859V3.57145C19.0714 3.30608 18.9991 3.05761 18.873 2.84469L20.3898 0.861161C20.5695 0.626137 20.5247 0.289917 20.2897 0.110193C20.0547 -0.069531 19.7184 -0.0247017 19.5387 0.210322L18.022 2.19374C17.9012 2.16059 17.7741 2.14288 17.6428 2.14288H3.35716C3.22589 2.14288 3.09876 2.16059 2.97802 2.19374L1.46129 0.210322ZM7.64286 5.00002C7.64286 5.789 7.00327 6.42859 6.21429 6.42859C5.42532 6.42859 4.78572 5.789 4.78572 5.00002C4.78572 4.21104 5.42532 3.57145 6.21429 3.57145C7.00327 3.57145 7.64286 4.21104 7.64286 5.00002ZM14.7857 6.42859C15.5747 6.42859 16.2143 5.789 16.2143 5.00002C16.2143 4.21104 15.5747 3.57145 14.7857 3.57145C13.9967 3.57145 13.3571 4.21104 13.3571 5.00002C13.3571 5.789 13.9967 6.42859 14.7857 6.42859Z" fill="white"/>
<path fill-rule="evenodd" clip-rule="evenodd" d="M10.5 17.8571C12.4724 17.8571 14.0714 16.2582 14.0714 14.2857C14.0714 12.3133 12.4724 10.7143 10.5 10.7143C8.52755 10.7143 6.92858 12.3133 6.92858 14.2857C6.92858 16.2582 8.52755 17.8571 10.5 17.8571ZM10.5 16.7857C11.8807 16.7857 13 15.6664 13 14.2857C13 12.905 11.8807 11.7857 10.5 11.7857C9.36749 11.7857 8.41087 12.5388 8.10353 13.5714H9.26254C9.50955 13.1444 9.97122 12.8572 10.5 12.8572C11.289 12.8572 11.9286 13.4967 11.9286 14.2857C11.9286 15.0747 11.289 15.7143 10.5 15.7143C9.97122 15.7143 9.50955 15.427 9.26254 15H8.10353C8.41087 16.0327 9.36749 16.7857 10.5 16.7857Z" fill="white"/>
<path fill-rule="evenodd" clip-rule="evenodd" d="M1.9286 10C1.9286 9.21104 2.56819 8.57144 3.35716 8.57144H17.6428C18.4318 8.57144 19.0714 9.21104 19.0714 10V18.5714C19.0714 19.3604 18.4318 20 17.6428 20H3.35716C2.56819 20 1.9286 19.3604 1.9286 18.5714V10ZM15.1428 14.2857C15.1428 16.8499 13.0642 18.9286 10.5 18.9286C7.93582 18.9286 5.85715 16.8499 5.85715 14.2857C5.85715 11.7215 7.93582 9.64287 10.5 9.64287C13.0642 9.64287 15.1428 11.7215 15.1428 14.2857Z" fill="white"/>
</svg>
