<svg width="25" height="20" viewBox="0 0 25 20" fill="none" xmlns="http://www.w3.org/2000/svg">
<path d="M12.5 0.604004L12.07 0.887004L0.5 8.459V15.211L6.893 19.395L12.5 15.725L18.107 19.396L24.5 15.211V8.459L12.5 0.604004ZM12.5 1.432L17.934 4.988L15.217 6.766L12.5 8.545L9.783 6.765L7.066 4.988L12.5 1.432ZM6.89 5.104L12.324 8.66L6.916 12.2L1.482 8.643L6.891 5.103L6.89 5.104ZM18.11 5.104L23.541 8.658L18.107 12.215L12.674 8.66L18.109 5.104H18.11ZM1.425 8.867L6.804 12.387C6.81204 12.3921 6.82113 12.3965 6.831 12.4V18.047L1.425 14.507V8.867ZM12.638 8.982L18.046 12.522V18.186L12.638 14.646V8.982Z" fill="white"/>
</svg>
