<svg width="25" height="24" viewBox="0 0 25 24" fill="none" xmlns="http://www.w3.org/2000/svg">
<g clip-path="url(#clip0_3_6976)">
<path d="M12.5 2.604L12.07 2.887L0.5 10.459V17.211L6.893 21.395L12.5 17.725L18.107 21.396L24.5 17.211V10.459L12.5 2.604ZM12.5 3.432L17.934 6.988L15.217 8.766L12.5 10.545L9.783 8.765L7.066 6.988L12.5 3.432ZM6.89 7.104L12.324 10.66L6.916 14.2L1.482 10.643L6.891 7.103L6.89 7.104ZM18.11 7.104L23.541 10.658L18.107 14.215L12.674 10.66L18.109 7.104H18.11ZM1.425 10.867L6.804 14.387C6.81204 14.3921 6.82113 14.3965 6.831 14.4V20.047L1.425 16.507V10.867ZM12.638 10.982L18.046 14.522V20.186L12.638 16.646V10.982Z" fill="white"/>
</g>
<defs>
<clipPath id="clip0_3_6976">
<rect width="24" height="24" fill="white" transform="translate(0.5)"/>
</clipPath>
</defs>
</svg>
