<svg width="18" height="18" viewBox="0 0 18 18" fill="none" xmlns="http://www.w3.org/2000/svg">
<path fill-rule="evenodd" clip-rule="evenodd" d="M11.9301 4.88613L4.00078 0.287628C3.69629 0.105253 3.34091 0 2.96063 0C2.23137 0 1.58385 0.41064 1.23041 1.00214L1.32265 1.09436L8.52271 8.29287L11.9301 4.88613ZM0.947266 2.13312V15.8669L7.81553 8.99991L0.947266 2.13312ZM1.23042 16.9978C1.58392 17.5894 2.23152 18 2.96063 18C3.33272 18 3.68208 17.8994 3.98167 17.7228L4.00547 17.7089L11.9437 13.1272L8.52272 9.70694L1.32265 16.9056L1.23042 16.9978ZM12.8405 12.6097L15.9925 10.7905C16.6239 10.4496 17.0526 9.78392 17.0526 9.01628C17.0526 8.25417 16.6297 7.59178 16.0045 7.24977L15.9974 7.24488L12.8252 5.40524L9.22989 8.9999L12.8405 12.6097Z" fill="white"/>
</svg>
