<svg width="481" height="222" viewBox="0 0 481 222" fill="none" xmlns="http://www.w3.org/2000/svg">
<path opacity="0.4" fill-rule="evenodd" clip-rule="evenodd" d="M434.579 122.02C434.579 251.679 275.424 391.072 245.365 416.242C242.539 418.608 238.473 418.582 235.67 416.188C216.549 399.853 144.778 336.118 95.3318 259.249C45.7514 274.918 10.675 277.118 2.03039 262.125C-12.4696 236.977 52.0487 171.528 152.239 105.802C225.727 129.94 270.868 76.1396 302.209 38.7856C311.59 27.6044 319.735 17.8968 327.034 12.1943C329.849 9.99479 329.904 4.47809 326.649 3.00839C231.55 -39.9289 144.975 -11.6424 135.64 66.5984C135.257 69.8029 138.8 71.8528 141.517 70.1165C178.071 46.7547 220.019 29.5182 251.646 21.3885C256.113 20.2404 257.14 24.7243 252.847 26.4117C222.921 38.1755 192.956 54.3482 166.122 71.063C165.971 71.0593 165.819 71.0956 165.684 71.1762C119.057 98.9508 79.1614 127.797 49.6427 154.27C47.5522 143.462 46.4206 132.686 46.4206 122.02C46.4206 11.5518 133.313 -78 240.5 -78C298.259 -78 350.126 -51.9961 385.678 -10.7281C435.253 -26.3942 470.326 -28.5933 478.97 -13.6014C490.585 6.54346 451.495 52.5488 383.982 103.842C367.742 116.712 348.469 130.357 326.889 144.147C254.501 121.519 209.86 174.724 178.785 211.761C169.404 222.942 161.259 232.65 153.96 238.352C151.145 240.552 151.09 246.068 154.345 247.538C249.444 290.476 336.019 262.189 345.354 183.948C345.737 180.744 342.193 178.694 339.477 180.43C302.923 203.792 260.975 221.028 229.348 229.158C224.881 230.306 223.854 225.822 228.147 224.135C258.112 212.356 288.117 196.156 314.978 179.418C315.094 179.406 315.209 179.37 315.314 179.308C362.712 151.074 403.153 121.733 432.81 94.9039C433.977 103.771 434.579 112.823 434.579 122.02ZM419.642 44.9342C435.291 28.8417 442.49 16.3753 438.645 9.70655C434.885 3.18661 421.055 3.05013 400.121 8.20988C407.809 19.6423 414.372 31.9406 419.642 44.9342ZM64.0849 200.826C46.5576 218.249 38.2963 231.762 42.358 238.807C46.2668 245.586 61.0633 245.464 83.4127 239.663C76.1193 226.937 69.5716 213.943 64.0849 200.826Z" fill="white" fill-opacity="0.1"/>
</svg>
