<svg width="19" height="18" viewBox="0 0 19 18" fill="none" xmlns="http://www.w3.org/2000/svg">
<g clip-path="url(#clip0_1_3284)">
<path d="M9.72852 0.375C4.75602 0.375 0.728516 4.335 0.728516 9.219C0.728516 13.1272 3.30702 16.4415 6.88227 17.61C7.33227 17.6932 7.49727 17.4195 7.49727 17.1847C7.49727 16.9748 7.48977 16.4183 7.48602 15.681C4.98252 16.2143 4.45452 14.4945 4.45452 14.4945C4.04502 13.4738 3.45327 13.2008 3.45327 13.2008C2.63802 12.6525 3.51627 12.6637 3.51627 12.6637C4.42002 12.7253 4.89477 13.575 4.89477 13.575C5.69727 14.9272 7.00152 14.5365 7.51602 14.3107C7.59702 13.7385 7.82877 13.3492 8.08602 13.128C6.08727 12.9067 3.98652 12.1462 3.98652 8.75775C3.98652 7.7925 4.33527 7.0035 4.91277 6.38475C4.81152 6.16125 4.50777 5.262 4.99152 4.044C4.99152 4.044 5.74527 3.807 7.46652 4.95075C8.18652 4.75425 8.95152 4.65675 9.71652 4.65225C10.4815 4.65675 11.2465 4.75425 11.9665 4.95075C13.6765 3.807 14.4303 4.044 14.4303 4.044C14.914 5.262 14.6103 6.16125 14.5203 6.38475C15.094 7.0035 15.4428 7.7925 15.4428 8.75775C15.4428 12.1553 13.339 12.903 11.3365 13.1205C11.6515 13.386 11.944 13.9283 11.944 14.757C11.944 15.9405 11.9328 16.8915 11.9328 17.1788C11.9328 17.4105 12.0903 17.6873 12.5515 17.5988C16.1523 16.4377 18.7285 13.1213 18.7285 9.219C18.7285 4.335 14.6988 0.375 9.72852 0.375Z" fill="#E5F0EB"/>
</g>
<defs>
<clipPath id="clip0_1_3284">
<rect width="18" height="18" fill="white" transform="translate(0.728516)"/>
</clipPath>
</defs>
</svg>
