<svg width="19" height="19" viewBox="0 0 19 19" fill="none" xmlns="http://www.w3.org/2000/svg">
<path d="M2.72459 18.4785C2.46093 18.4122 2.32317 18.3029 1.61936 17.6013C0.78197 16.7666 0.728275 16.6851 0.729594 16.2509C0.73093 15.7657 0.584324 15.9392 3.2597 13.2594C5.96163 10.553 5.8225 10.6709 6.31134 10.6722C6.53732 10.6729 6.59418 10.6856 6.7764 10.7773L6.98401 10.8818L7.63881 10.2277L8.29362 9.57353L8.12956 9.31804C7.81033 8.82089 7.50944 8.09548 7.37426 7.49706C6.99263 5.80765 7.40403 4.02045 8.48654 2.66504C10.354 0.326814 13.7088 -0.191859 16.1899 1.47407C17.5514 2.38824 18.4363 3.80034 18.6884 5.46091C18.7416 5.81196 18.7419 6.64573 18.689 7.01608C18.5046 8.30455 17.9556 9.39962 17.0333 10.3188C16.5581 10.7923 16.1771 11.0667 15.5723 11.3709C14.8523 11.733 14.2415 11.9029 13.4114 11.972C12.2288 12.0704 10.9176 11.7436 9.91381 11.1004L9.65806 10.9365L9.00326 11.5906L8.34846 12.2448L8.45304 12.4522C8.54484 12.6342 8.55771 12.691 8.55829 12.9168C8.55963 13.4045 8.67545 13.2678 5.98451 15.9527C3.91221 18.0204 3.59321 18.3263 3.43449 18.3986C3.23119 18.4912 2.91592 18.5267 2.72459 18.4785ZM13.8472 10.963C15.3427 10.6895 16.6487 9.69485 17.3033 8.33076C18.347 6.15593 17.645 3.59999 15.6331 2.24878C15.1531 1.92644 14.4829 1.65472 13.8538 1.52745C13.4181 1.43929 12.496 1.4483 12.0415 1.54517C11.363 1.68977 10.7401 1.95943 10.2003 2.34221C9.86674 2.57876 9.31671 3.12802 9.08373 3.45722C7.79272 5.28142 7.90952 7.70594 9.36949 9.38891C10.1179 10.2516 11.1529 10.8179 12.2983 10.9913C12.6786 11.0489 13.4552 11.0347 13.8472 10.963ZM12.5229 10.3134C12.007 10.2318 11.5695 10.1009 11.215 9.92206L11.0143 9.82087V8.89144V7.96201H10.6607C10.3532 7.96201 9.93194 8.02233 9.62773 8.10992C9.58738 8.12154 9.57067 8.16824 9.56354 8.28936L9.55388 8.4531L9.40041 8.1617C9.06389 7.52272 8.94402 7.01969 8.94403 6.24652C8.94403 5.64876 8.98654 5.37354 9.15295 4.89375C9.24129 4.63907 9.45898 4.188 9.5542 4.06237C9.59558 4.00777 9.60008 4.01976 9.60101 4.18677L9.60201 4.37158L10.6532 4.36314L11.7044 4.35469L11.7137 4.09015L11.7231 3.82562H11.3687H11.0143V3.24909V2.67257L11.1399 2.60859C11.3469 2.50307 11.7314 2.35777 11.9492 2.30274C12.0617 2.2743 12.1772 2.24421 12.2058 2.23586C12.2508 2.22271 12.2542 2.23923 12.2313 2.35779C12.187 2.58659 12.1986 3.2145 12.2513 3.43785C12.3557 3.88001 12.6151 4.20728 12.9675 4.34134C13.178 4.42138 13.5748 4.43654 13.8068 4.37341C14.028 4.31321 14.2735 4.13575 14.3983 3.94567C14.5831 3.66455 14.6482 3.41904 14.666 2.93636L14.6818 2.51203L14.9413 2.64688C15.2401 2.80221 15.6035 3.06436 15.8691 3.31627C16.0478 3.48572 16.0537 3.49664 16.0537 3.65847V3.82562H15.7006H15.3475V4.09817V4.37073H15.9991H16.6507L16.7209 4.51502L16.7911 4.65932L16.4304 4.65864C16.1819 4.65798 15.9573 4.68034 15.7086 4.73008L15.3475 4.80227V5.06752C15.3475 5.21341 15.3531 5.33278 15.36 5.33278C15.3669 5.33278 15.5129 5.30391 15.6845 5.26865C15.8561 5.23337 16.0094 5.20452 16.0251 5.20452C16.0411 5.20452 16.0537 5.62542 16.0537 6.16539V7.12625L15.7086 7.13537L15.3636 7.14447L15.3542 7.40843L15.3449 7.67238L16.0987 7.681L16.8524 7.6896L16.7969 7.81539L16.7413 7.94116L16.3413 7.9435C15.9715 7.94584 15.9276 7.95271 15.7596 8.03511C15.3212 8.2502 15.0854 8.7381 15.0782 9.44522L15.0747 9.79012L14.8601 9.9028C14.6728 10.0012 14.0175 10.2386 13.9334 10.2386C13.915 10.2386 13.9031 9.79167 13.9031 9.10033V7.96201H13.5536C13.3286 7.96201 13.0912 7.9851 12.8875 8.0268C12.4169 8.12315 12.4587 8.08862 12.4587 8.38102C12.4587 8.56841 12.4697 8.63538 12.5004 8.63538C12.5234 8.63538 12.6715 8.60685 12.8295 8.57195C12.9874 8.53706 13.1275 8.5082 13.1408 8.50782C13.154 8.50749 13.1649 8.91835 13.1649 9.42098V10.3348L12.884 10.3305C12.7295 10.3281 12.5671 10.3204 12.5229 10.3134ZM11.0538 7.64849C11.384 7.50259 11.6343 7.16844 11.7359 6.73792C11.7969 6.47948 11.7977 5.89637 11.7375 5.6126C11.6428 5.16583 11.3787 4.826 11.0191 4.68813C10.7636 4.59017 10.3327 4.59079 10.0751 4.68946C9.71532 4.82735 9.46198 5.16535 9.36077 5.64254C9.30135 5.92272 9.30114 6.441 9.36044 6.72008C9.45907 7.18503 9.7536 7.55134 10.1271 7.67349C10.3882 7.75891 10.8309 7.74697 11.0538 7.64849ZM10.3112 7.10987C10.1797 6.99931 10.1177 6.77987 10.0947 6.34271C10.0742 5.95188 10.1187 5.54774 10.2015 5.37345C10.2772 5.21402 10.4185 5.13328 10.591 5.15083C10.8672 5.17893 10.9733 5.39431 11.0045 5.98999C11.037 6.61097 10.9344 7.06673 10.7426 7.15406C10.5979 7.21989 10.4204 7.2017 10.3112 7.10987ZM13.8485 7.67309C14.4073 7.50066 14.6984 6.92326 14.6647 6.05412C14.636 5.3144 14.3718 4.85819 13.8634 4.67028C13.6523 4.59228 13.1937 4.60142 12.9676 4.68813C12.6098 4.82531 12.3551 5.15088 12.2475 5.60852C12.1726 5.92756 12.199 6.65113 12.2954 6.91985C12.4459 7.33915 12.7289 7.61717 13.0922 7.70267C13.3084 7.75356 13.6283 7.74104 13.8485 7.67309ZM13.2253 7.14425C13.0394 7.04336 12.9545 6.6524 12.9819 6.02416C13.0028 5.5459 13.0366 5.4015 13.1599 5.26367C13.3359 5.06692 13.6661 5.12277 13.7831 5.36906C13.9114 5.6392 13.9333 6.49048 13.8216 6.8663C13.7582 7.07926 13.6259 7.19291 13.4433 7.19116C13.3696 7.19049 13.2715 7.16934 13.2253 7.14425ZM10.0499 9.0632C9.77905 8.78043 9.67905 8.63973 9.73617 8.6218C9.84356 8.5881 10.2555 8.50789 10.2662 8.5186C10.2728 8.5252 10.2741 8.6998 10.2692 8.9066L10.2601 9.28259L10.0499 9.0632ZM15.8792 9.02016C15.9049 8.79721 15.9937 8.59083 16.0908 8.52803C16.1971 8.45933 16.3289 8.43216 16.3901 8.46635C16.435 8.49151 16.4226 8.52165 16.2997 8.68569C16.2212 8.79028 16.09 8.94801 16.0079 9.03619L15.8588 9.19652L15.8792 9.02016ZM16.795 5.90182L16.7981 4.67533L16.8939 4.96391C17.0835 5.5345 17.1504 6.14715 17.0834 6.69857C17.0308 7.13139 17.0321 7.12831 16.902 7.12831H16.7918L16.795 5.90182ZM13.2736 3.8583C13.1778 3.8196 13.0754 3.6793 13.0302 3.52481C12.9864 3.37462 12.9744 2.46427 13.0139 2.27845C13.0376 2.16656 13.0474 2.1582 13.1547 2.1582C13.385 2.1582 13.8364 2.23351 13.8521 2.27457C13.8608 2.29713 13.8775 2.45694 13.8892 2.6297C13.9137 2.99054 13.8621 3.49446 13.7839 3.65914C13.6941 3.8483 13.4677 3.93665 13.2736 3.8583ZM9.75843 3.76948C9.77506 3.73861 9.89767 3.59794 10.0309 3.45685L10.2731 3.20032L10.2744 3.51295L10.2758 3.8256H10.0018C9.75076 3.8256 9.7307 3.82089 9.75843 3.76948ZM11.0402 16.4961C10.1453 16.2377 9.40445 16.0174 9.39393 16.0064C9.37422 15.9858 10.2991 12.709 10.3358 12.6695C10.3541 12.6499 13.5208 13.5358 13.6505 13.5969C13.6964 13.6185 13.6479 13.8139 13.2569 15.1767C13.0116 16.032 12.7961 16.786 12.778 16.8521C12.7599 16.9182 12.7276 16.9708 12.7063 16.969C12.6849 16.9674 11.9352 16.7544 11.0402 16.4961ZM13.2291 16.8876C13.2291 16.8476 14.1493 13.6369 14.1639 13.6259C14.1972 13.6009 17.4098 12.7049 17.4221 12.7172C17.4366 12.7317 16.524 15.9703 16.5001 15.9893C16.4837 16.0022 13.3998 16.8814 13.3013 16.9012C13.2616 16.9091 13.2291 16.9032 13.2291 16.8876ZM7.89118 15.454C8.52605 14.8165 9.09182 14.2344 9.14846 14.1605C9.27615 13.9938 9.45363 13.6104 9.50189 13.3971C9.52183 13.3089 9.5417 13.1331 9.54603 13.0065L9.55391 12.7762L9.69125 12.7375C9.76678 12.7162 9.83437 12.7046 9.84144 12.7117C9.85905 12.7292 8.93524 15.9523 8.90446 15.9806C8.89093 15.9931 8.39769 16.1405 7.80837 16.3082L6.73689 16.6132L7.89118 15.454ZM14.1145 13.1606C14.108 13.1497 14.0879 13.087 14.0699 13.0214L14.0372 12.902L14.1547 12.8822C15.1617 12.712 16.2402 12.2397 17.0897 11.5968C17.211 11.505 17.2798 11.4705 17.2887 11.497C17.3299 11.6192 17.4939 12.2096 17.4882 12.2153C17.4627 12.2408 14.1239 13.1763 14.1145 13.1606ZM2.79221 12.1868C2.75337 12.1553 1.90604 9.2845 1.8421 8.96777C1.82931 8.90436 1.95235 8.93463 3.47418 9.36919C5.06653 9.8239 5.12085 9.84198 5.143 9.92471C5.16274 9.9985 5.14985 10.0214 5.04885 10.0917C4.98448 10.1365 4.46969 10.6352 3.90487 11.2C3.34005 11.7648 2.86977 12.2268 2.85981 12.2268C2.84985 12.2268 2.81941 12.2088 2.79221 12.1868ZM3.40717 8.9009C2.51565 8.64488 1.78362 8.43333 1.78042 8.4308C1.76926 8.42195 2.7253 5.10547 2.74456 5.08624C2.76133 5.06949 6.06571 5.99436 6.10001 6.02539C6.10699 6.0317 5.89818 6.78749 5.63601 7.70494C5.20315 9.21967 5.1533 9.37273 5.09372 9.36972C5.05763 9.36805 4.29868 9.15693 3.40717 8.9009ZM5.62882 9.30458C5.63794 9.28049 5.78787 8.76299 5.96196 8.15455L6.27849 7.0483L6.31976 7.28879C6.39125 7.70547 6.51803 8.18042 6.66832 8.59461C6.74821 8.81477 6.80905 8.99885 6.80352 9.00369C6.79801 9.00853 6.55516 9.07986 6.26387 9.16221C5.97258 9.24456 5.70679 9.32013 5.67323 9.33014C5.63041 9.34292 5.61716 9.33532 5.62882 9.30458ZM4.4022 5.08483C3.51068 4.82864 2.77355 4.60706 2.76413 4.59244C2.73349 4.54493 1.82836 1.35206 1.84173 1.3387C1.86054 1.31991 5.07688 2.24199 5.10758 2.27496C5.14201 2.31195 6.06783 5.5582 6.04273 5.55396C6.03194 5.55229 5.29372 5.34103 4.4022 5.08483ZM6.01318 3.79993C5.83346 3.17043 5.65917 2.5604 5.62588 2.44432L5.56533 2.23327L6.83742 1.87096C7.53706 1.67169 8.13116 1.50056 8.15764 1.49066C8.18413 1.48075 8.09648 1.59447 7.96289 1.74336C7.25245 2.53511 6.78669 3.38352 6.4921 4.42247C6.43719 4.61615 6.39226 4.80556 6.39226 4.8434C6.39226 5.06286 6.30575 4.82471 6.01318 3.79993Z" fill="#E5F0EB"/>
</svg>
